<svg style="position: absolute; width: 0; height: 0; overflow: hidden;" aria-hidden="true" version="1.1" xmlns="http://www.w3.org/2000/svg" xmlns:xlink="http://www.w3.org/1999/xlink">
    <style>
        .default-palette, .palette0 {color: currentColor;
            --color0: #fafafa;
            --color1: #3b3b3b;
        }
    </style>
    <defs>
        <symbol id="sprite" viewBox="0 0 1920 1920" fill="none" class="hidden">
         <symbol id="icon-jefferson" viewBox="0 0 84 19" fill="var(--color0, #fafafa)">
            <path d="M79.2159 9l0.1389-2.9308-2.5608 1.5943L76 6.3461l2.7196-1.3366L76 3.673l0.794-1.3365 2.5608 1.5943L79.2159 1h1.5682l-0.1389 2.9308 2.5608-1.5943L84 3.673 81.2804 5.0096 84 6.3461 83.206 7.6635 80.6452 6.0692 80.7841 9z" />
            <path d="M67.0858 8.5574V15H65V4.136l2.0279 0v1.788l0.1448 0c0.2447-0.5895 0.6277-1.0559 1.1492-1.3993C68.8433 4.1749 69.5129 4 70.3305 4c0.7339 0 1.3744 0.1555 1.9216 0.4664 0.5537 0.3045 0.9818 0.7612 1.2844 1.3702C73.8455 6.4455 74 7.2002 74 8.1007V15h-2.0858V8.3534c0-0.7839-0.206-1.3993-0.6181-1.8463-0.412-0.4535-0.9721-0.6802-1.6802-0.6802-0.4829 0-0.9174 0.1101-1.3037 0.3303-0.3798 0.2138-0.6792 0.5215-0.898 0.9232-0.2189 0.4016-0.3284 0.894-0.3284 1.477z" />
            <path d="M58.9952 15c-1.0035 0-1.8824-0.2286-2.6366-0.6857-0.7479-0.4572-1.3295-1.0984-1.745-1.9238C54.2045 11.5651 54 10.6063 54 9.5143c0-1.1048 0.2045-2.0699 0.6136-2.8953 0.4155-0.8318 0.9971-1.4762 1.745-1.9334C57.1128 4.2286 57.9917 4 58.9952 4c1.0099 0 1.8888 0.2286 2.6366 0.6857 0.7479 0.4572 1.3295 1.1016 1.745 1.9333C63.7923 7.4444 64 8.4095 64 9.5143c0 1.092-0.2077 2.0508-0.6232 2.8762s-0.9971 1.4666-1.745 1.9238C60.884 14.7714 60.0051 15 58.9952 15zM58.9952 13.2571c0.6584 0 1.2017-0.1714 1.6299-0.5142 0.4283-0.3429 0.7447-0.7969 0.9492-1.3619 0.2109-0.5715 0.3164-1.1937 0.3164-1.8667 0-0.6857-0.1055-1.3143-0.3164-1.8857-0.2045-0.5715-0.5209-1.0286-0.9492-1.3715-0.4282-0.3428-0.9715-0.5142-1.6299-0.5142-0.652 0-1.1921 0.1714-1.6203 0.5142-0.4219 0.3429-0.7383 0.8-0.9492 1.3715s-0.3164 1.2-0.3164 1.8857c0 0.673 0.1055 1.2952 0.3164 1.8667 0.2109 0.565 0.5273 1.019 0.9492 1.3619 0.4282 0.3428 0.9683 0.5142 1.6203 0.5142z" />
            <path d="M52.7819 6.7429 50.8293 7.0667c-0.1256-0.3556-0.3601-0.6826-0.7037-0.981-0.3371-0.2984-0.8426-0.4476-1.5166-0.4476-0.6079 0-1.1167 0.1333-1.5264 0.4-0.4031 0.2603-0.6046 0.5937-0.6046 1 0 0.3556 0.1354 0.6444 0.4064 0.8667 0.2775 0.2222 0.7169 0.4 1.3182 0.5333l1.7743 0.381c1.011 0.2222 1.7676 0.5714 2.2698 1.0476C52.7489 10.3429 53 10.9524 53 11.6952c0 0.6413-0.1916 1.2127-0.5749 1.7143-0.3832 0.4953-0.9152 0.8857-1.5958 1.1715-0.6806 0.2793-1.467 0.419-2.359 0.419-1.2423 0-2.2533-0.2571-3.0331-0.7714-0.7797-0.5143-1.2588-1.2381-1.4372-2.1715l2.0716-0.3047c0.1321 0.5206 0.3998 0.9143 0.8028 1.1809 0.4097 0.2667 0.9384 0.4 1.586 0.4 0.7004 0 1.2621-0.1428 1.685-0.4285 0.4295-0.2858 0.6442-0.6318 0.6442-1.0381 0-0.673-0.522-1.127-1.566-1.3619l-1.8734-0.4c-1.0374-0.2286-1.8039-0.5873-2.2995-1.0762-0.489-0.4953-0.7335-1.1175-0.7335-1.8667 0-0.6286 0.1817-1.181 0.5451-1.6571 0.3701-0.4762 0.8756-0.8445 1.5166-1.1048 0.6475-0.2667 1.3843-0.4 2.2103-0.4 1.2027 0 2.1443 0.2508 2.8249 0.7524 0.6872 0.5016 1.1432 1.1651 1.3678 1.9905z" />
            <path d="M38 15V4.1552h2.1005v1.7363l0.1206 0c0.2077-0.582 0.5695-1.0411 1.0854-1.3774C41.8291 4.1714 42.4188 4 43.0754 4c0.134 0 0.2914 65e-4 0.4723 0.0194 0.1876 65e-4 0.3384 0.0162 0.4523 0.0291v2.0176c-0.0871-0.0258-0.2446-0.0517-0.4724-0.0776-0.2211-0.0258-0.4455-0.0388-0.6733-0.0388-0.5159 0-0.9783 0.1067-1.387 0.3201-0.402 0.207-0.7202 0.4947-0.9547 0.8634-0.2278 0.3621-0.3417 0.7824-0.3417 1.261V15z" />
            <path d="M32.2668 15c-1.0804 0-2.0158-0.2254-2.8063-0.6762s-1.3999-1.0857-1.8281-1.9048C27.2108 11.5937 27 10.6317 27 9.5333c0-1.092 0.2075-2.0539 0.6225-2.8857 0.4216-0.8317 1.0112-1.4794 1.7688-1.9428C30.1555 4.2349 31.0514 4 32.0791 4c0.6258 0 1.2318 0.0984 1.8181 0.2952s1.1133 0.508 1.5811 0.9334c0.4677 0.4254 0.8366 0.9777 1.1067 1.6571C36.8617 7.5651 37 8.3841 37 9.3429v0.7428h-8.7846V8.5333l7.6779 0-0.998 0.5143c0-0.654-0.1054-1.2317-0.3162-1.7333-0.2109-0.5016-0.5271-0.8921-0.9487-1.1714-0.415-0.2858-0.9321-0.4286-1.5513-0.4286-0.6193 0-1.1496 0.1428-1.591 0.4286-0.4347 0.2857-0.7674 0.6635-0.998 1.1333-0.2305 0.4698-0.3458 0.9841-0.3458 1.5429v1.0571c0 0.7301 0.1317 1.3492 0.3952 1.8571 0.2635 0.508 0.6291 0.8953 1.0969 1.1619 0.4743 0.2667 1.0243 0.4 1.6502 0.4 0.4084 0 0.7773-0.0571 1.1067-0.1714 0.3359-0.1143 0.6258-0.2857 0.8695-0.5143 0.2438-0.2285 0.4282-0.5111 0.5534-0.8476l2.0356 0.3714c-0.1647 0.5715-0.4546 1.073-0.8696 1.5048-0.415 0.4317-0.9387 0.7682-1.5711 1.0095C33.7852 14.8825 33.0705 15 32.2668 15z" />
            <path d="M27.4388 4.25v1.6827l-6.4388 0V4.25zM22.7551 15V3c0-0.6667 0.1565-1.2211 0.4694-1.6635 0.3197-0.4487 0.7347-0.782 1.2449-1C24.9864 0.1122 25.5408 0 26.1327 0c0.4557 0 0.8435 0.0353 1.1632 0.1058S27.8503 0.2372 28 0.2885l-0.5306 1.6923c-0.1021-0.0321-0.2347-0.0673-0.398-0.1058-0.1564-0.0385-0.3537-0.0577-0.5918-0.0577-0.5374 0-0.9252 0.1282-1.1633 0.3846-0.2381 0.25-0.3571 0.6154-0.3571 1.0962V15z" />
            <path d="M21.4388 4.25v1.6827l-6.4388 0V4.25zM16.7551 15V3c0-0.6667 0.1565-1.2211 0.4694-1.6635 0.3197-0.4487 0.7347-0.782 1.2449-1C18.9864 0.1122 19.5408 0 20.1327 0c0.4557 0 0.8435 0.0353 1.1632 0.1058S21.8503 0.2372 22 0.2885l-0.5306 1.6923c-0.1021-0.0321-0.2347-0.0673-0.398-0.1058-0.1564-0.0385-0.3537-0.0577-0.5918-0.0577-0.5374 0-0.9252 0.1282-1.1633 0.3846-0.2381 0.25-0.3571 0.6154-0.3571 1.0962V15z" />
            <path d="M10.2668 15c-1.0804 0-2.0158-0.2254-2.8063-0.6762s-1.3999-1.0857-1.8281-1.9048C5.2108 11.5937 5 10.6317 5 9.5333c0-1.092 0.2075-2.0539 0.6225-2.8857 0.4216-0.8317 1.0112-1.4794 1.7688-1.9428C8.1555 4.2349 9.0514 4 10.0791 4c0.6258 0 1.2318 0.0984 1.8181 0.2952s1.1133 0.508 1.5811 0.9334c0.4677 0.4254 0.8366 0.9777 1.1067 1.6571C14.8617 7.5651 15 8.3841 15 9.3429v0.7428H6.2154l0-1.5524 7.6779 0-0.998 0.5143c0-0.654-0.1054-1.2317-0.3162-1.7333-0.2109-0.5016-0.5271-0.8921-0.9487-1.1714-0.415-0.2858-0.9321-0.4286-1.5513-0.4286-0.6193 0-1.1496 0.1428-1.591 0.4286-0.4347 0.2857-0.7674 0.6635-0.998 1.1333S7.1443 8.2603 7.1443 8.8191l0 1.0571c0 0.7301 0.1317 1.3492 0.3952 1.8571 0.2635 0.508 0.6291 0.8953 1.0969 1.1619 0.4743 0.2667 1.0243 0.4 1.6502 0.4 0.4084 0 0.7773-0.0571 1.1067-0.1714 0.3359-0.1143 0.6258-0.2857 0.8695-0.5143 0.2438-0.2285 0.4282-0.5111 0.5534-0.8476l2.0356 0.3714c-0.1647 0.5715-0.4546 1.073-0.8696 1.5048-0.415 0.4317-0.9387 0.7682-1.5711 1.0095C11.7852 14.8825 11.0705 15 10.2668 15z" />
            <path d="M1.7089 4.1632l2.0282 0 0 11.5043c62e-4 0.7212-0.119 1.3298-0.3756 1.8256-0.2567 0.4959-0.6322 0.8694-1.1268 1.1205C1.7402 18.8712 1.133 19 0.4131 19H0v-1.8063h0.3286c0.4883 0 0.8389-0.132 1.0517-0.396 0.2128-0.2641 0.3224-0.644 0.3286-1.1398zM2.7136 2.5018c-0.3568 0-0.6604-0.1224-0.9108-0.3671S1.4272 1.597 1.4272 1.2557c0-0.3477 0.1252-0.6439 0.3756-0.8886S2.3568 0 2.7136 0c0.3506 0 0.651 0.1224 0.9014 0.3671C3.8717 0.6118 4 0.908 4 1.2557 4 1.597 3.8717 1.89 3.615 2.1347 3.3646 2.3794 3.0642 2.5018 2.7136 2.5018z" />
        </symbol>
        <symbol id="icon-menu" viewBox="0 0 28 28" fill="none">
            <path stroke-width="2" stroke="var(--color0, #fafafa)" stroke-linecap="round" d="M3.5 9.9167l21 0M3.5 18.0833h21" />
        </symbol>
           <symbol id="icon-arrow-big" viewBox="0 0 32 32" stroke-width="2" stroke="var(currentColor, #3b3b3b)" stroke-linecap="round" stroke-linejoin="round" fill="none">
            <path d="M26.6667 16H5.3334" />
            <path d="M13.3333 24 5.3332 16l8.0001-8" />
        </symbol>
        <symbol id="icon-logo" viewBox="0 0 19 15" fill="none">
            <path fill="var(--color0, #fafafa)" d="M4.3652 14.7461c-0.8268 0-1.569-0.1465-2.2265-0.4395-0.6576-0.2994-1.1784-0.7356-1.5625-1.3086C0.1921 12.4251 0 11.7285 0 10.9082V10.625h2.1777l0 0.2832c0 0.3971 0.0912 0.7454 0.2735 1.0449 0.1888 0.2995 0.4459 0.5306 0.7715 0.6934 0.332 0.1562 0.7129 0.2344 1.1425 0.2344 0.4623 0 0.8561-0.0977 1.1817-0.293s0.5729-0.4818 0.7422-0.8594c0.1692-0.3841 0.2539-0.8528 0.2539-1.4062L6.543 0h2.1777v10.3223c0 0.931-0.179 1.7285-0.5371 2.3925-0.3516 0.6576-0.8529 1.1622-1.5039 1.5137-0.6511 0.3451-1.4225 0.5176-2.3145 0.5176zM13.516 8.1836l0.1367-2.998-2.5195 1.6308-0.7812-1.3477 2.6757-1.3672-2.6757-1.3672 0.7812-1.3672 2.5195 1.6309L13.516 0h1.543l-0.1367 2.9981 2.5195-1.6309 0.7812 1.3672-2.6757 1.3672 2.6757 1.3671-0.7812 1.3476-2.5195-1.6309 0.1367 2.998z" />
        </symbol>
        <symbol id="jefferson_" viewBox="0 0 34 17" fill="var(--color0, #fafafa)">
            <path d="M29.7194 8.0526l0.1243-2.6223-2.2912 1.4264-0.7105-1.1787 2.4334-1.1959-2.4334-1.1958 0.7105-1.1958 2.2912 1.4264-0.1243-2.6223 1.4032 0-0.1244 2.6223 2.2913-1.4264 0.7104 1.1958-2.4333 1.1958 2.4333 1.1959-0.7104 1.1787-2.2913-1.4265 0.1244 2.6222z" />
            <path d="M24.5506 3.8026v1.5056h-5.761V3.8026zM20.3599 13.4211V2.6842c0-0.5965 0.14-1.0926 0.42-1.4883 0.2861-0.4015 0.6573-0.6998 1.1138-0.8948C22.3563 0.1004 22.8524 0 23.3819 0c0.4078 0 0.7548 0.0315 1.0408 0.0946 0.2861 0.0631 0.4961 0.1176 0.63 0.1635L24.578 1.7723c-0.0913-0.0287-0.21-0.0603-0.3561-0.0947-0.14-0.0344-0.3165-0.0516-0.5296-0.0516-0.4808 0-0.8277 0.1147-1.0408 0.3441-0.213 0.2237-0.3195 0.5506-0.3195 0.9808v10.4702z" />
            <path d="M19.1822 3.8026v1.5056h-5.7611V3.8026zM14.9915 13.4211V2.6842c0-0.5965 0.14-1.0926 0.42-1.4883 0.286-0.4015 0.6573-0.6998 1.1138-0.8948C16.9879 0.1004 17.484 0 18.0135 0c0.4078 0 0.7548 0.0315 1.0408 0.0946 0.2861 0.0631 0.4961 0.1176 0.63 0.1635l-0.4748 1.5142c-0.0913-0.0287-0.2099-0.0603-0.356-0.0947-0.14-0.0344-0.3165-0.0516-0.5296-0.0516-0.4808 0-0.8277 0.1147-1.0408 0.3441-0.213 0.2237-0.3195 0.5506-0.3195 0.9808v10.4702z" />
            <path d="M9.186 13.4211c-0.9666 0-1.8036-0.2017-2.5109-0.6051-0.7073-0.4033-1.2525-0.9714-1.6356-1.7042-0.3773-0.7385-0.5659-1.5992-0.5659-2.582 0-0.9771 0.1857-1.8377 0.557-2.5819 0.3773-0.7442 0.9048-1.3237 1.5826-1.7384C7.297 3.7891 8.0986 3.579 9.0181 3.579c0.5599-1e-4 1.1022 0.088 1.6267 0.2641 0.5246 0.1761 0.9962 0.4545 1.4146 0.8351 0.4185 0.3806 0.7486 0.8748 0.9903 1.4827 0.2475 0.6078 0.3713 1.3407 0.3713 2.1985v0.6647l-7.8599 0 0-1.389 6.8697 0-0.893 0.4601c0-0.5851-0.0943-1.1021-0.2829-1.5508s-0.4715-0.7982-0.8488-1.0482c-0.3713-0.2556-0.834-0.3834-1.388-0.3834S7.9895 5.2406 7.5946 5.4962c-0.389 0.2557-0.6867 0.5937-0.893 1.0141-0.2063 0.4204-0.3094 0.8805-0.3094 1.3804l0 0.9459c0 0.6533 0.1179 1.2072 0.3536 1.6616 0.2358 0.4545 0.5629 0.801 0.9814 1.0396 0.4244 0.2386 0.9166 0.3579 1.4765 0.3579 0.3654 0 0.6955-0.0511 0.9902-0.1533 0.3006-0.1023 0.56-0.2557 0.7781-0.4602s0.3831-0.4573 0.4951-0.7584l1.8213 0.3323c-0.1474 0.5113-0.4067 0.9601-0.778 1.3464-0.3714 0.3863-0.84 0.6874-1.4058 0.9033-0.56 0.2102-1.1995 0.3153-1.9186 0.3153z" />
            <path d="M1.529 3.725l1.8147 0 0 10.2933c56e-4 0.6453-0.1064 1.1898-0.336 1.6335-0.2297 0.4436-0.5657 0.7778-1.0082 1.0025C1.557 16.8848 1.0138 17 0.3697 17H0v-1.6162h0.294c0.4369 0 0.7506-0.1181 0.941-0.3543s0.2884-0.5762 0.294-1.0198zM2.428 2.2384c-0.3193 0-0.5909-0.1094-0.8149-0.3284C1.389 1.6911 1.277 1.4289 1.277 1.1235c0-0.3111 0.112-0.5761 0.336-0.7951C1.8371 0.1095 2.1087 0 2.428 0 2.7416 0 3.0105 0.1095 3.2345 0.3284 3.4641 0.5474 3.579 0.8124 3.579 1.1235 3.579 1.4289 3.4641 1.6911 3.2345 1.91 3.0105 2.129 2.7416 2.2384 2.428 2.2384z" />
        </symbol>
        <symbol id="icon-hourglass" viewBox="0 0 24 24" fill="none">
            <path stroke-width="2" stroke="var(--color0, #fafafa)" stroke-linejoin="round" d="M18.1626 2H5.8374C5.3749 2 5 2.3749 5 2.8374c0 2.6653 1.0588 5.2214 2.9434 7.106l1.2192 1.2192c0.121 0.121 0.1816 0.1816 0.2249 0.2397 0.2644 0.3546 0.2644 0.8408 0 1.1954-0.0433 0.0581-0.1039 0.1187-0.2249 0.2397l-1.2192 1.2192C6.0588 15.9412 5 18.4973 5 21.1626 5 21.6251 5.3749 22 5.8374 22h12.3252C18.6251 22 19 21.6251 19 21.1626c0-2.6653-1.0588-5.2214-2.9434-7.106l-1.2192-1.2192c-0.121-0.121-0.1816-0.1816-0.2249-0.2397-0.2644-0.3546-0.2644-0.8408 0-1.1954 0.0433-0.0581 0.1039-0.1187 0.2249-0.2397l1.2192-1.2192C17.9412 8.0588 19 5.5027 19 2.8374 19 2.3749 18.6251 2 18.1626 2z" />
        </symbol>
        <symbol id="icon-brush" viewBox="0 0 24 24" stroke-width="2" stroke="var(--color0, #fafafa)" stroke-linecap="round" stroke-linejoin="round" fill="none">
            <path d="M12.7778 15 9 11.2222" />
            <path d="M2 22c2 0 4.608 0.3417 5.9749-1.0251 1.3668-1.3669 1.3668-3.5829-1e-4-4.9498-1.3669-1.3668-3.583-1.3668-4.9498 0C1.6583 17.392 3.0251 20 2 22z" />
            <path d="M8 16c-0.4915-0.4914-0.7372-0.7371-0.8761-0.9944-0.3331-0.6171-0.3188-1.3635 0.0378-1.9672 0.1487-0.2518 0.4037-0.4879 0.9136-0.9601l9.8681-9.1371C18.8126 2.1365 20.1624 2.1624 20.9999 3c0.8376 0.8376 0.8636 2.1874 0.0588 3.0565l-9.1371 9.8681c-0.4722 0.5099-0.7082 0.7649-0.96 0.9136-0.6038 0.3566-1.3502 0.3709-1.9672 0.0378C8.7371 16.7371 8.4914 16.4914 8 16z" />
        </symbol>
        <symbol id="icon-message" viewBox="0 0 24 24" fill="none">
            <path stroke-width="2" stroke="var(--color0, #fafafa)" stroke-linecap="round" stroke-linejoin="round" d="M6.0944 11.2288C6.0322 10.8282 6 10.4179 6 10c0-4.4183 3.6053-8 8.0526-8 4.4473 0 8.0526 3.5817 8.0526 8 0 0.9981-0.1839 1.9535-0.52 2.8345-0.0698 0.183-0.1048 0.2745-0.1206 0.3459-0.0157 0.0708-0.0218 0.1206-0.0235 0.1931-17e-4 0.0731 82e-4 0.1537 0.0281 0.3148l0.4025 3.2702c0.0436 0.354 0.0654 0.531 65e-4 0.6597-0.0516 0.1128-0.1432 0.2023-0.2571 0.2513-0.13 0.0559-0.3065 0.03-0.6594-0.0217l-3.1852-0.4669c-0.1664-0.0244-0.2495-0.0366-0.3253-0.0361-0.0749 4e-4-0.1267 59e-4-0.2001 0.0213-0.0741 0.0156-0.1688 0.0511-0.3581 0.122C16.0097 17.819 15.0524 18 14.0526 18c-0.4182 0-0.8289-0.0317-1.2299-0.0927M7.6316 22C10.5965 22 13 19.5376 13 16.5S10.5965 11 7.6316 11c-2.9649 0-5.3684 2.4624-5.3684 5.5 0 0.6106 0.0971 1.1979 0.2763 1.7467 0.0757 0.232 0.1136 0.348 0.1261 0.4272 0.0129 0.0828 0.0152 0.1292 0.0104 0.2128-46e-4 0.0801-0.0247 0.1706-0.0648 0.3516L2 22l2.9948-0.409c0.1635-0.0223 0.2452-0.0335 0.3166-0.033 0.0751 5e-4 0.115 46e-4 0.1887 0.0193 0.07 0.0139 0.1741 0.0506 0.3822 0.1241C6.4306 21.8949 7.0191 22 7.6316 22z" />
        </symbol>
        <symbol id="icon-user" viewBox="0 0 24 24" stroke-width="2" stroke="var(--color0, #fafafa)" stroke-linecap="round" stroke-linejoin="round" fill="none">
            <path d="M20 21c0-1.3956 0-2.0933-0.1722-2.6611-0.3878-1.2784-1.3883-2.2789-2.6667-2.6667C16.5933 15.5 15.8956 15.5 14.5 15.5h-5c-1.3956 0-2.0933 0-2.6611 0.1722C5.5605 16.06 4.56 17.0605 4.1722 18.3389 4 18.9067 4 19.6044 4 21" />
            <path d="M12 12c2.4853 0 4.5-2.0147 4.5-4.5S14.4853 3 12 3C9.5147 3 7.5 5.0147 7.5 7.5S9.5147 12 12 12z" />
        </symbol>
        <symbol id="icon-arrow-small" viewBox="0 0 20 20" fill="none">
            <path stroke-width="2" stroke="var(--color0, #fafafa)" d="M15 12.5l-5-5-5 5" />
        </symbol>
        <symbol id="icon-close" viewBox="0 0 28 28" stroke-width="2" stroke="var(--color0, #fafafa)" stroke-linecap="round" stroke-linejoin="round" fill="none">
            <path d="M21 7 7 21" />
            <path d="M7 7 21 21" />
        </symbol>
        </symbol>
        
    </defs>
</svg>